<?xml version="1.0" encoding="UTF-8"?>
<svg id="_レイヤー_1" data-name="レイヤー 1" xmlns="http://www.w3.org/2000/svg" viewBox="0 0 100.53 75.39">
  <defs>
    <style>
      .cls-1 {
        stroke-width: .96px;
      }

      .cls-1, .cls-2, .cls-3, .cls-4, .cls-5, .cls-6, .cls-7, .cls-8, .cls-9, .cls-10, .cls-11, .cls-12, .cls-13, .cls-14, .cls-15 {
        stroke-miterlimit: 10;
      }

      .cls-1, .cls-2, .cls-3, .cls-4, .cls-6, .cls-7, .cls-8, .cls-9, .cls-10, .cls-11, .cls-13, .cls-14, .cls-15 {
        fill: none;
      }

      .cls-1, .cls-2, .cls-3, .cls-4, .cls-6, .cls-7, .cls-9, .cls-10, .cls-11, .cls-13, .cls-14, .cls-15 {
        stroke: #967171;
      }

      .cls-2 {
        stroke-width: 1.41px;
      }

      .cls-3 {
        stroke-width: .71px;
      }

      .cls-4 {
        stroke-width: .93px;
      }

      .cls-5 {
        stroke-width: 2.03px;
      }

      .cls-5, .cls-12 {
        fill: #ddd;
        stroke: #ddd;
      }

      .cls-6 {
        stroke-width: .9px;
      }

      .cls-7 {
        stroke-width: 2.01px;
      }

      .cls-8 {
        stroke: #fff;
        stroke-width: .82px;
      }

      .cls-9 {
        stroke-width: 1.94px;
      }

      .cls-10 {
        stroke-width: 1.22px;
      }

      .cls-11 {
        stroke-width: 1.36px;
      }

      .cls-12 {
        stroke-width: 1.63px;
      }

      .cls-13 {
        stroke-width: 1.27px;
      }

      .cls-14 {
        stroke-width: 1.07px;
      }

      .cls-15 {
        stroke-width: 1.53px;
      }
    </style>
  </defs>
  <g>
    <ellipse class="cls-9" cx="51.23" cy="31.38" rx="12.23" ry="12.19"/>
    <g>
      <polygon class="cls-15" points="69.11 26 68.34 23.8 71.57 22.67 72.34 24.88 69.11 26"/>
      <rect class="cls-15" x="29.66" y="29.67" width="2.34" height="3.42" transform="translate(-.54 62.21) rotate(-90)"/>
      <polygon class="cls-15" points="70.73 42.4 69.33 44.27 66.59 42.24 67.98 40.37 70.73 42.4"/>
      <polygon class="cls-15" points="32.67 42.96 31.38 41 34.24 39.13 35.53 41.09 32.67 42.96"/>
      <rect class="cls-15" x="70.58" y="30.11" width="2.34" height="3.42" transform="translate(103.57 -39.92) rotate(90)"/>
      <rect class="cls-15" x="50.05" y="9.56" width="2.35" height="3.41"/>
      <rect class="cls-15" x="50.05" y="49.96" width="2.35" height="3.41"/>
      <polygon class="cls-15" points="39 49.87 37.11 48.48 39.15 45.74 41.03 47.13 39 49.87"/>
      <polygon class="cls-15" points="64.04 49.4 62.08 50.68 60.2 47.83 62.16 46.55 64.04 49.4"/>
      <polygon class="cls-15" points="64.22 18.11 62.45 16.57 64.69 14 66.46 15.54 64.22 18.11"/>
      <polygon class="cls-15" points="64.22 18.11 62.45 16.57 64.69 14 66.46 15.54 64.22 18.11"/>
      <polygon class="cls-15" points="37.4 14.25 35.63 15.78 37.88 18.35 39.65 16.82 37.4 14.25"/>
      <polygon class="cls-15" points="31.29 22.18 30.45 24.37 33.64 25.59 34.48 23.41 31.29 22.18"/>
    </g>
    <ellipse class="cls-7" cx="51.23" cy="31.38" rx="16.58" ry="16.53"/>
  </g>
  <g>
    <ellipse class="cls-11" cx="80.51" cy="59.63" rx="8.59" ry="8.57"/>
    <g>
      <polygon class="cls-14" points="84.68 47.24 83.08 46.85 83.65 44.52 85.25 44.91 84.68 47.24"/>
      <polygon class="cls-14" points="69.72 70.8 70.96 71.88 72.54 70.07 71.29 68.99 69.72 70.8"/>
      <polygon class="cls-14" points="95.28 54.32 95.73 55.9 93.42 56.55 92.97 54.97 95.28 54.32"/>
      <rect class="cls-14" x="76.66" y="72.29" width="1.65" height="2.4" transform="translate(10.37 -9.58) rotate(7.58)"/>
      <polygon class="cls-14" points="90.02 50.41 88.77 49.34 90.34 47.53 91.59 48.6 90.02 50.41"/>
      <polygon class="cls-14" points="70.19 51.5 69.28 52.87 67.27 51.55 68.18 50.18 70.19 51.5"/>
      <polygon class="cls-14" points="92.76 69.12 91.69 70.37 89.87 68.8 90.95 67.56 92.76 69.12"/>
      <polygon class="cls-14" points="86.47 74.01 84.95 74.65 84.03 72.43 85.55 71.8 86.47 74.01"/>
      <rect class="cls-14" x="93.88" y="60.59" width="1.64" height="2.4" transform="translate(20.89 147.46) rotate(-82.38)"/>
      <polygon class="cls-14" points="76.6 47.07 75.07 47.69 74.17 45.47 75.7 44.85 76.6 47.07"/>
      <rect class="cls-14" x="65.4" y="58.69" width="1.64" height="2.4" transform="translate(6.49 126.27) rotate(-90.14)"/>
      <polygon class="cls-14" points="66.44 65.97 67.22 67.41 69.33 66.29 68.56 64.84 66.44 65.97"/>
    </g>
    <ellipse class="cls-2" cx="80.51" cy="59.63" rx="11.65" ry="11.62"/>
  </g>
  <g>
    <ellipse class="cls-6" cx="84.16" cy="10.4" rx="5.67" ry="5.65"/>
    <g>
      <polygon class="cls-3" points="86.91 2.22 85.86 1.96 86.23 .43 87.29 .68 86.91 2.22"/>
      <polygon class="cls-3" points="77.04 17.76 77.87 18.47 78.9 17.28 78.08 16.57 77.04 17.76"/>
      <polygon class="cls-3" points="93.91 6.89 94.21 7.93 92.68 8.36 92.38 7.32 93.91 6.89"/>
      <rect class="cls-3" x="81.62" y="18.75" width="1.09" height="1.58" transform="translate(3.29 -10.67) rotate(7.58)"/>
      <polygon class="cls-3" points="90.43 4.31 89.61 3.61 90.65 2.41 91.47 3.12 90.43 4.31"/>
      <polygon class="cls-3" points="77.35 5.03 76.76 5.94 75.43 5.07 76.03 4.16 77.35 5.03"/>
      <polygon class="cls-3" points="92.25 16.66 91.54 17.48 90.34 16.44 91.05 15.62 92.25 16.66"/>
      <polygon class="cls-3" points="88.09 19.88 87.09 20.3 86.48 18.84 87.49 18.42 88.09 19.88"/>
      <rect class="cls-3" x="92.98" y="11.03" width="1.08" height="1.58" transform="translate(69.4 102.95) rotate(-82.38)"/>
      <polygon class="cls-3" points="81.58 2.11 80.58 2.52 79.98 1.06 80.99 .65 81.58 2.11"/>
      <rect class="cls-3" x="74.2" y="9.78" width="1.08" height="1.59" transform="translate(64.35 85.34) rotate(-90.14)"/>
      <polygon class="cls-3" points="74.88 14.57 75.39 15.53 76.79 14.78 76.28 13.83 74.88 14.57"/>
    </g>
    <ellipse class="cls-4" cx="84.16" cy="10.4" rx="7.69" ry="7.66"/>
  </g>
  <g>
    <ellipse class="cls-10" cx="14.31" cy="52.99" rx="7.7" ry="7.68"/>
    <g>
      <polygon class="cls-1" points="24.31 46.83 23.48 45.61 25.26 44.4 26.09 45.62 24.31 46.83"/>
      <polygon class="cls-1" points=".67 55.85 1.05 57.27 3.13 56.72 2.75 55.3 .67 55.85"/>
      <polygon class="cls-1" points="27.96 56.53 27.42 57.9 25.42 57.11 25.96 55.74 27.96 56.53"/>
      <polygon class="cls-1" points="4.91 63.03 3.81 62.05 5.24 60.45 6.34 61.43 4.91 63.03"/>
      <polygon class="cls-1" points="26.01 50.93 25.63 49.5 27.71 48.95 28.09 50.37 26.01 50.93"/>
      <polygon class="cls-1" points="10.77 41.78 9.4 42.34 8.58 40.36 9.94 39.8 10.77 41.78"/>
      <polygon class="cls-1" points="18.6 66.17 17.17 66.55 16.62 64.48 18.05 64.1 18.6 66.17"/>
      <polygon class="cls-1" points="9.88 66.21 8.51 65.67 9.3 63.68 10.67 64.22 9.88 66.21"/>
      <polygon class="cls-1" points="25.03 61.87 24.05 62.97 22.44 61.54 23.43 60.44 25.03 61.87"/>
      <polygon class="cls-1" points="20.05 42.82 18.72 42.17 19.67 40.24 21 40.89 20.05 42.82"/>
      <polygon class="cls-1" points="20.05 42.82 18.72 42.17 19.67 40.24 21 40.89 20.05 42.82"/>
      <polygon class="cls-1" points="3.11 44.8 2.29 46.02 4.07 47.22 4.9 46.01 3.11 44.8"/>
      <rect class="cls-1" x=".94" y="50.39" width="1.47" height="2.15" transform="translate(-49.68 47.69) rotate(-83.93)"/>
    </g>
    <ellipse class="cls-13" cx="14.31" cy="52.99" rx="10.44" ry="10.41"/>
  </g>
  <g>
    <path class="cls-5" d="m14.67,19.82c2.22,0,4,.41,5.28,1.34,1.22.9,2.06,2.37,2.06,4.42,0,4.54-3.9,6.38-6.87,6.38-.34,0-.66-.03-.84-.06l-2.16-.56v4.86c0,2.62.22,2.68,3.09,2.99v.87H6.61v-.87c2.69-.28,2.81-.47,2.81-3.05v-12.36c0-2.77-.34-2.83-2.81-3.08v-.87h8.06Zm-2.53,10.43c.37.19,1.22.41,2.28.41,2.09,0,4.68-1.06,4.68-4.98,0-3.42-2.25-4.79-4.87-4.79-.91,0-1.56.16-1.75.37-.25.22-.34.59-.34,1.43v7.56Z"/>
    <path class="cls-12" d="m27.72,29.09c3.14,0,5.47,2.38,5.47,5.6,0,4.05-3.01,5.98-5.47,5.98-3.46,0-5.57-2.78-5.57-5.58,0-4.08,3.19-6,5.57-6Zm-.3.85c-1.53,0-2.91,1.47-2.91,4.38,0,3.18,1.4,5.48,3.46,5.48,1.56,0,2.86-1.12,2.86-4.55,0-2.93-1.2-5.3-3.41-5.3Z"/>
    <path class="cls-12" d="m40.59,40.37h-5.77v-.7c1.58-.15,1.73-.28,1.73-1.9v-5.2c0-1.65-.1-1.72-1.56-1.9v-.62c1.23-.2,2.36-.5,3.54-1.03v2.75c.88-1.3,1.93-2.68,3.19-2.68.93,0,1.45.58,1.45,1.2,0,.58-.4,1.13-.85,1.38-.25.15-.45.12-.65-.05-.38-.37-.68-.63-1.13-.63-.53,0-1.45.78-2.01,2.05v4.7c0,1.65.13,1.77,2.06,1.93v.7Z"/>
    <path class="cls-12" d="m49.57,40.34c-.43.22-.83.32-1.08.32-1.61,0-2.46-.98-2.46-2.98v-7.28h-1.73l-.1-.3.68-.73h1.15v-2.1c.48-.5,1.2-1.15,1.68-1.65l.38.05c-.05,1.05-.07,2.5-.07,3.7h2.86c.23.25.15.8-.15,1.03h-2.71v6.4c0,2.03.8,2.4,1.45,2.4.6,0,1.18-.23,1.53-.4l.23.65-1.66.88Z"/>
    <path class="cls-12" d="m53.69,29.39v-.67c0-1.8.63-3.65,2.21-5,.88-.77,1.83-1.2,2.81-1.33.85.03,1.63.33,2.03.8.23.28.28.53.15.88-.07.25-.35.6-.6.8-.28.18-.48.12-.73-.05-.5-.45-1.2-1.03-2.03-1.03-1.86,0-1.86,2.53-1.86,4.43v1.17h2.66c.15.23.02.85-.25,1.03h-2.41v7.23c0,1.8.28,1.82,2.16,2.03v.7h-5.89v-.7c1.58-.15,1.76-.25,1.76-1.88v-7.38h-1.78l-.1-.27.55-.75h1.33Z"/>
    <path class="cls-12" d="m64.87,29.09c3.14,0,5.47,2.38,5.47,5.6,0,4.05-3.01,5.98-5.47,5.98-3.46,0-5.57-2.78-5.57-5.58,0-4.08,3.19-6,5.57-6Zm-.3.85c-1.53,0-2.91,1.47-2.91,4.38,0,3.18,1.4,5.48,3.46,5.48,1.56,0,2.86-1.12,2.86-4.55,0-2.93-1.2-5.3-3.41-5.3Z"/>
    <path class="cls-12" d="m71.75,40.37v-.7c1.61-.15,1.81-.28,1.81-1.93v-11.98c0-1.52-.13-1.68-1.73-1.88v-.65c1.35-.15,2.91-.55,3.71-.85v15.35c0,1.65.15,1.77,1.78,1.93v.7h-5.57Z"/>
    <path class="cls-12" d="m78.62,40.37v-.7c1.58-.15,1.75-.28,1.75-1.98v-5.15c0-1.55-.07-1.65-1.58-1.9v-.6c1.3-.23,2.48-.55,3.56-1v8.65c0,1.7.18,1.83,1.81,1.98v.7h-5.54Zm2.61-13.78c-.7,0-1.33-.62-1.33-1.32,0-.8.63-1.38,1.36-1.38s1.28.58,1.28,1.38c0,.7-.58,1.32-1.3,1.32Z"/>
    <path class="cls-12" d="m91.04,29.09c3.14,0,5.47,2.38,5.47,5.6,0,4.05-3.01,5.98-5.47,5.98-3.46,0-5.57-2.78-5.57-5.58,0-4.08,3.19-6,5.57-6Zm-.3.85c-1.53,0-2.91,1.47-2.91,4.38,0,3.18,1.4,5.48,3.46,5.48,1.56,0,2.86-1.12,2.86-4.55,0-2.93-1.2-5.3-3.41-5.3Z"/>
  </g>
  <polyline class="cls-8" points="5.64 41.85 100.53 41.85 3.61 41.85"/>
</svg>