<?xml version="1.0" encoding="UTF-8"?>
<svg id="_レイヤー_1" data-name="レイヤー 1" xmlns="http://www.w3.org/2000/svg" viewBox="0 0 119.25 50.85">
  <defs>
    <style>
      .cls-1 {
        stroke-width: .69px;
      }

      .cls-1, .cls-2 {
        fill: none;
        stroke: #fff;
        stroke-miterlimit: 10;
      }

      .cls-2 {
        stroke-width: 1.37px;
      }
    </style>
  </defs>
  <path class="cls-2" d="m11.35.68C5.46.68.68,6.27.68,13.17s4.78,12.48,10.67,12.48,10.67-5.59,10.67-12.48S17.24.68,11.35.68Zm0,24.02c-4.81,0-8.71-4.56-8.71-10.19S6.54,4.32,11.35,4.32s8.71,4.56,8.71,10.19-3.9,10.19-8.71,10.19Z"/>
  <g>
    <path class="cls-2" d="m33.06,8.76c1.5,0,2.7.27,3.56.91.82.61,1.39,1.6,1.39,2.99,0,3.07-2.63,4.32-4.63,4.32-.23,0-.44-.02-.57-.04l-1.45-.38v3.29c0,1.77.15,1.81,2.09,2.02v.59h-5.81v-.59c1.81-.19,1.9-.32,1.9-2.06v-8.36c0-1.87-.23-1.92-1.9-2.09v-.59h5.44Zm-1.71,7.06c.25.13.82.27,1.54.27,1.41,0,3.16-.72,3.16-3.37,0-2.32-1.52-3.24-3.29-3.24-.61,0-1.05.1-1.18.25-.17.15-.23.4-.23.97v5.12Z"/>
    <path class="cls-2" d="m43.53,12.95c2.63,0,4.59,2,4.59,4.72,0,3.41-2.53,5.04-4.59,5.04-2.91,0-4.68-2.34-4.68-4.7,0-3.43,2.68-5.06,4.68-5.06Zm-.25.72c-1.29,0-2.44,1.24-2.44,3.69,0,2.68,1.18,4.61,2.91,4.61,1.31,0,2.4-.95,2.4-3.83,0-2.47-1.01-4.47-2.86-4.47Z"/>
    <path class="cls-2" d="m54.34,22.46h-4.85v-.59c1.33-.13,1.45-.23,1.45-1.6v-4.38c0-1.39-.08-1.45-1.31-1.6v-.53c1.03-.17,1.98-.42,2.97-.86v2.32c.74-1.1,1.62-2.25,2.68-2.25.78,0,1.22.48,1.22,1.01,0,.48-.34.95-.72,1.16-.21.13-.38.1-.55-.04-.32-.32-.57-.53-.95-.53-.44,0-1.22.65-1.69,1.73v3.96c0,1.39.11,1.5,1.73,1.62v.59Z"/>
    <path class="cls-2" d="m61.88,22.44c-.36.19-.69.27-.91.27-1.35,0-2.06-.82-2.06-2.51v-6.13h-1.45l-.08-.25.57-.61h.97v-1.77c.4-.42,1.01-.97,1.41-1.39l.32.04c-.04.89-.06,2.11-.06,3.12h2.4c.19.21.13.67-.13.86h-2.28v5.39c0,1.71.67,2.02,1.22,2.02.51,0,.99-.19,1.29-.34l.19.55-1.39.74Z"/>
    <path class="cls-2" d="m65.34,13.21v-.57c0-1.52.53-3.08,1.85-4.21.74-.65,1.54-1.01,2.36-1.12.72.02,1.37.27,1.71.67.19.23.23.44.13.74-.06.21-.29.51-.51.67-.23.15-.4.1-.61-.04-.42-.38-1.01-.86-1.71-.86-1.56,0-1.56,2.13-1.56,3.73v.99h2.23c.13.19.02.72-.21.86h-2.02v6.09c0,1.52.23,1.54,1.81,1.71v.59h-4.95v-.59c1.33-.13,1.47-.21,1.47-1.58v-6.21h-1.5l-.08-.23.46-.63h1.12Z"/>
    <path class="cls-2" d="m74.74,12.95c2.63,0,4.59,2,4.59,4.72,0,3.41-2.53,5.04-4.59,5.04-2.91,0-4.68-2.34-4.68-4.7,0-3.43,2.68-5.06,4.68-5.06Zm-.25.72c-1.29,0-2.44,1.24-2.44,3.69,0,2.68,1.18,4.61,2.91,4.61,1.31,0,2.4-.95,2.4-3.83,0-2.47-1.01-4.47-2.86-4.47Z"/>
    <path class="cls-2" d="m80.51,22.46v-.59c1.35-.13,1.52-.23,1.52-1.62v-10.09c0-1.28-.11-1.41-1.45-1.58v-.55c1.14-.13,2.44-.46,3.12-.72v12.94c0,1.39.13,1.5,1.5,1.62v.59h-4.68Z"/>
    <path class="cls-2" d="m86.28,22.46v-.59c1.33-.13,1.47-.23,1.47-1.66v-4.34c0-1.31-.06-1.39-1.33-1.6v-.51c1.1-.19,2.09-.46,2.99-.84v7.29c0,1.43.15,1.54,1.52,1.66v.59h-4.66Zm2.19-11.61c-.59,0-1.12-.53-1.12-1.12,0-.67.53-1.16,1.14-1.16s1.07.48,1.07,1.16c0,.59-.48,1.12-1.1,1.12Z"/>
    <path class="cls-2" d="m96.71,12.95c2.63,0,4.59,2,4.59,4.72,0,3.41-2.53,5.04-4.59,5.04-2.91,0-4.68-2.34-4.68-4.7,0-3.43,2.68-5.06,4.68-5.06Zm-.25.72c-1.29,0-2.44,1.24-2.44,3.69,0,2.68,1.18,4.61,2.91,4.61,1.31,0,2.4-.95,2.4-3.83,0-2.47-1.01-4.47-2.86-4.47Z"/>
  </g>
  <path class="cls-2" d="m11.35,9.83c-3.26,0-5.9,3.32-5.9,7.42s2.64,7.42,5.9,7.42,5.9-3.32,5.9-7.42-2.64-7.42-5.9-7.42Zm0,14.35c-2.57,0-4.65-2.74-4.65-6.11s2.08-6.11,4.65-6.11,4.65,2.74,4.65,6.11-2.08,6.11-4.65,6.11Z"/>
  <polyline class="cls-1" points="24.99 23.71 104.68 23.71 23.28 23.71"/>
</svg>