<?xml version="1.0" encoding="UTF-8"?>
<svg id="_レイヤー_1" data-name="レイヤー 1" xmlns="http://www.w3.org/2000/svg" viewBox="0 0 100.53 76.09">
  <defs>
    <style>
      .cls-1 {
        stroke-width: .87px;
      }

      .cls-1, .cls-2, .cls-3, .cls-4, .cls-5, .cls-6, .cls-7, .cls-8, .cls-9, .cls-10, .cls-11, .cls-12, .cls-13, .cls-14, .cls-15 {
        stroke-miterlimit: 10;
      }

      .cls-1, .cls-2, .cls-3, .cls-5, .cls-6, .cls-7, .cls-8, .cls-9, .cls-10, .cls-12, .cls-13, .cls-14, .cls-15 {
        fill: none;
      }

      .cls-1, .cls-2, .cls-3, .cls-5, .cls-6, .cls-7, .cls-8, .cls-9, .cls-12, .cls-13, .cls-14, .cls-15 {
        stroke: #967171;
      }

      .cls-2 {
        stroke-width: 1.94px;
      }

      .cls-3 {
        stroke-width: 1.07px;
      }

      .cls-4 {
        stroke-width: 1.63px;
      }

      .cls-4, .cls-11 {
        fill: #ddd;
        stroke: #ddd;
      }

      .cls-5 {
        stroke-width: 1.27px;
      }

      .cls-6 {
        stroke-width: 1.53px;
      }

      .cls-7 {
        stroke-width: 1.22px;
      }

      .cls-8 {
        stroke-width: 1.36px;
      }

      .cls-9 {
        stroke-width: .96px;
      }

      .cls-10 {
        stroke: #fff;
        stroke-width: .82px;
      }

      .cls-11 {
        stroke-width: 2.03px;
      }

      .cls-12 {
        stroke-width: .69px;
      }

      .cls-13 {
        stroke-width: 2.01px;
      }

      .cls-14 {
        stroke-width: 1.41px;
      }

      .cls-15 {
        stroke-width: .91px;
      }
    </style>
  </defs>
  <g>
    <ellipse class="cls-2" cx="51.23" cy="31.85" rx="12.23" ry="12.19"/>
    <g>
      <polygon class="cls-6" points="69.11 26.48 68.34 24.28 71.57 23.15 72.34 25.36 69.11 26.48"/>
      <rect class="cls-6" x="29.66" y="30.14" width="2.34" height="3.42" transform="translate(-1.02 62.69) rotate(-90)"/>
      <polygon class="cls-6" points="70.73 42.87 69.33 44.75 66.59 42.72 67.98 40.84 70.73 42.87"/>
      <polygon class="cls-6" points="32.67 43.43 31.38 41.48 34.24 39.61 35.53 41.56 32.67 43.43"/>
      <rect class="cls-6" x="70.58" y="30.59" width="2.34" height="3.42" transform="translate(104.05 -39.45) rotate(90)"/>
      <rect class="cls-6" x="50.05" y="10.04" width="2.35" height="3.41"/>
      <rect class="cls-6" x="50.05" y="50.44" width="2.35" height="3.41"/>
      <polygon class="cls-6" points="39 50.35 37.11 48.96 39.15 46.22 41.03 47.61 39 50.35"/>
      <polygon class="cls-6" points="64.04 49.88 62.08 51.16 60.2 48.31 62.16 47.03 64.04 49.88"/>
      <polygon class="cls-6" points="64.22 18.59 62.45 17.05 64.69 14.48 66.46 16.01 64.22 18.59"/>
      <polygon class="cls-6" points="64.22 18.59 62.45 17.05 64.69 14.48 66.46 16.01 64.22 18.59"/>
      <polygon class="cls-6" points="37.4 14.73 35.63 16.26 37.88 18.83 39.65 17.3 37.4 14.73"/>
      <polygon class="cls-6" points="31.29 22.66 30.45 24.85 33.64 26.07 34.48 23.88 31.29 22.66"/>
    </g>
    <ellipse class="cls-13" cx="51.23" cy="31.85" rx="16.58" ry="16.53"/>
  </g>
  <g>
    <ellipse class="cls-1" cx="80.63" cy="9.9" rx="5.52" ry="5.5"/>
    <g>
      <polygon class="cls-12" points="87.8 5.49 87.2 4.62 88.48 3.75 89.07 4.62 87.8 5.49"/>
      <polygon class="cls-12" points="70.85 11.96 71.13 12.98 72.62 12.58 72.34 11.56 70.85 11.96"/>
      <polygon class="cls-12" points="90.41 12.45 90.02 13.43 88.59 12.86 88.98 11.88 90.41 12.45"/>
      <polygon class="cls-12" points="73.89 17.1 73.1 16.4 74.13 15.25 74.92 15.96 73.89 17.1"/>
      <polygon class="cls-12" points="89.01 8.43 88.74 7.41 90.23 7.01 90.51 8.03 89.01 8.43"/>
      <polygon class="cls-12" points="78.09 1.87 77.11 2.27 76.52 .85 77.5 .45 78.09 1.87"/>
      <polygon class="cls-12" points="83.7 19.35 82.68 19.63 82.28 18.14 83.31 17.87 83.7 19.35"/>
      <polygon class="cls-12" points="77.45 19.38 76.47 18.99 77.04 17.56 78.02 17.95 77.45 19.38"/>
      <polygon class="cls-12" points="88.31 16.27 87.61 17.06 86.46 16.04 87.16 15.25 88.31 16.27"/>
      <polygon class="cls-12" points="84.74 2.61 83.79 2.15 84.47 .77 85.42 1.23 84.74 2.61"/>
      <polygon class="cls-12" points="84.74 2.61 83.79 2.15 84.47 .77 85.42 1.23 84.74 2.61"/>
      <polygon class="cls-12" points="72.6 4.04 72.01 4.91 73.29 5.77 73.88 4.9 72.6 4.04"/>
      <rect class="cls-12" x="71.05" y="8.04" width="1.05" height="1.54" transform="translate(55.25 79.05) rotate(-83.93)"/>
    </g>
    <ellipse class="cls-15" cx="80.63" cy="9.9" rx="7.48" ry="7.46"/>
  </g>
  <g>
    <ellipse class="cls-8" cx="80.51" cy="60.11" rx="8.59" ry="8.57"/>
    <g>
      <polygon class="cls-3" points="84.68 47.71 83.08 47.33 83.65 45 85.25 45.39 84.68 47.71"/>
      <polygon class="cls-3" points="69.72 71.28 70.96 72.36 72.54 70.54 71.29 69.47 69.72 71.28"/>
      <polygon class="cls-3" points="95.28 54.79 95.73 56.37 93.42 57.03 92.97 55.45 95.28 54.79"/>
      <rect class="cls-3" x="76.66" y="72.77" width="1.65" height="2.4" transform="translate(10.43 -9.57) rotate(7.58)"/>
      <polygon class="cls-3" points="90.02 50.89 88.77 49.82 90.34 48 91.59 49.08 90.02 50.89"/>
      <polygon class="cls-3" points="70.19 51.98 69.28 53.35 67.27 52.03 68.18 50.66 70.19 51.98"/>
      <polygon class="cls-3" points="92.76 69.6 91.69 70.84 89.87 69.28 90.95 68.03 92.76 69.6"/>
      <polygon class="cls-3" points="84.74 75.09 83.13 75.45 82.61 73.11 84.21 72.75 84.74 75.09"/>
      <rect class="cls-3" x="93.88" y="61.07" width="1.64" height="2.4" transform="translate(20.42 147.87) rotate(-82.38)"/>
      <polygon class="cls-3" points="76.6 47.55 75.07 48.17 74.17 45.95 75.7 45.33 76.6 47.55"/>
      <rect class="cls-3" x="65.4" y="59.17" width="1.64" height="2.4" transform="translate(6.01 126.75) rotate(-90.14)"/>
      <polygon class="cls-3" points="66.44 66.44 67.22 67.89 69.33 66.76 68.56 65.32 66.44 66.44"/>
    </g>
    <ellipse class="cls-14" cx="80.51" cy="60.11" rx="11.65" ry="11.62"/>
  </g>
  <g>
    <ellipse class="cls-7" cx="14.31" cy="53.46" rx="7.7" ry="7.68"/>
    <g>
      <polygon class="cls-9" points="24.31 47.3 23.48 46.09 25.26 44.88 26.09 46.1 24.31 47.3"/>
      <polygon class="cls-9" points=".67 56.33 1.05 57.75 3.13 57.2 2.75 55.78 .67 56.33"/>
      <polygon class="cls-9" points="27.96 57.01 27.42 58.38 25.42 57.59 25.96 56.22 27.96 57.01"/>
      <polygon class="cls-9" points="4.91 63.51 3.81 62.53 5.24 60.93 6.34 61.91 4.91 63.51"/>
      <polygon class="cls-9" points="26.01 51.4 25.63 49.98 27.71 49.43 28.09 50.85 26.01 51.4"/>
      <polygon class="cls-9" points="10.77 42.26 9.4 42.82 8.58 40.84 9.94 40.27 10.77 42.26"/>
      <polygon class="cls-9" points="18.6 66.65 17.17 67.03 16.62 64.96 18.05 64.58 18.6 66.65"/>
      <polygon class="cls-9" points="9.88 66.69 8.51 66.15 9.3 64.15 10.67 64.7 9.88 66.69"/>
      <polygon class="cls-9" points="25.03 62.35 24.05 63.45 22.44 62.02 23.43 60.92 25.03 62.35"/>
      <polygon class="cls-9" points="20.05 43.29 18.72 42.65 19.67 40.72 21 41.37 20.05 43.29"/>
      <polygon class="cls-9" points="20.05 43.29 18.72 42.65 19.67 40.72 21 41.37 20.05 43.29"/>
      <polygon class="cls-9" points="3.11 45.28 2.29 46.5 4.07 47.7 4.9 46.48 3.11 45.28"/>
      <rect class="cls-9" x=".94" y="50.87" width="1.47" height="2.15" transform="translate(-50.15 48.12) rotate(-83.93)"/>
    </g>
    <ellipse class="cls-5" cx="14.31" cy="53.46" rx="10.44" ry="10.41"/>
  </g>
  <g>
    <path class="cls-11" d="m14.67,20.3c2.22,0,4,.41,5.28,1.34,1.22.9,2.06,2.37,2.06,4.42,0,4.54-3.9,6.38-6.87,6.38-.34,0-.66-.03-.84-.06l-2.16-.56v4.86c0,2.62.22,2.68,3.09,2.99v.87H6.61v-.87c2.69-.28,2.81-.47,2.81-3.05v-12.36c0-2.77-.34-2.83-2.81-3.08v-.87h8.06Zm-2.53,10.43c.37.19,1.22.41,2.28.41,2.09,0,4.68-1.06,4.68-4.98,0-3.42-2.25-4.79-4.87-4.79-.91,0-1.56.16-1.75.37-.25.22-.34.59-.34,1.43v7.56Z"/>
    <path class="cls-4" d="m27.72,29.57c3.14,0,5.47,2.38,5.47,5.6,0,4.05-3.01,5.98-5.47,5.98-3.46,0-5.57-2.78-5.57-5.58,0-4.08,3.19-6,5.57-6Zm-.3.85c-1.53,0-2.91,1.47-2.91,4.38,0,3.18,1.4,5.48,3.46,5.48,1.56,0,2.86-1.12,2.86-4.55,0-2.93-1.2-5.3-3.41-5.3Z"/>
    <path class="cls-4" d="m40.59,40.84h-5.77v-.7c1.58-.15,1.73-.28,1.73-1.9v-5.2c0-1.65-.1-1.72-1.56-1.9v-.62c1.23-.2,2.36-.5,3.54-1.03v2.75c.88-1.3,1.93-2.68,3.19-2.68.93,0,1.45.58,1.45,1.2,0,.58-.4,1.13-.85,1.38-.25.15-.45.12-.65-.05-.38-.37-.68-.63-1.13-.63-.53,0-1.45.78-2.01,2.05v4.7c0,1.65.13,1.77,2.06,1.93v.7Z"/>
    <path class="cls-4" d="m49.57,40.82c-.43.22-.83.32-1.08.32-1.61,0-2.46-.98-2.46-2.98v-7.28h-1.73l-.1-.3.68-.73h1.15v-2.1c.48-.5,1.2-1.15,1.68-1.65l.38.05c-.05,1.05-.07,2.5-.07,3.7h2.86c.23.25.15.8-.15,1.03h-2.71v6.4c0,2.03.8,2.4,1.45,2.4.6,0,1.18-.23,1.53-.4l.23.65-1.66.88Z"/>
    <path class="cls-4" d="m53.69,29.87v-.67c0-1.8.63-3.65,2.21-5,.88-.77,1.83-1.2,2.81-1.33.85.03,1.63.33,2.03.8.23.28.28.53.15.88-.07.25-.35.6-.6.8-.28.18-.48.12-.73-.05-.5-.45-1.2-1.03-2.03-1.03-1.86,0-1.86,2.53-1.86,4.43v1.17h2.66c.15.23.02.85-.25,1.03h-2.41v7.23c0,1.8.28,1.82,2.16,2.03v.7h-5.89v-.7c1.58-.15,1.76-.25,1.76-1.88v-7.38h-1.78l-.1-.27.55-.75h1.33Z"/>
    <path class="cls-4" d="m64.87,29.57c3.14,0,5.47,2.38,5.47,5.6,0,4.05-3.01,5.98-5.47,5.98-3.46,0-5.57-2.78-5.57-5.58,0-4.08,3.19-6,5.57-6Zm-.3.85c-1.53,0-2.91,1.47-2.91,4.38,0,3.18,1.4,5.48,3.46,5.48,1.56,0,2.86-1.12,2.86-4.55,0-2.93-1.2-5.3-3.41-5.3Z"/>
    <path class="cls-4" d="m71.75,40.84v-.7c1.61-.15,1.81-.28,1.81-1.93v-11.98c0-1.52-.13-1.68-1.73-1.88v-.65c1.35-.15,2.91-.55,3.71-.85v15.35c0,1.65.15,1.77,1.78,1.93v.7h-5.57Z"/>
    <path class="cls-4" d="m78.62,40.84v-.7c1.58-.15,1.75-.28,1.75-1.98v-5.15c0-1.55-.07-1.65-1.58-1.9v-.6c1.3-.23,2.48-.55,3.56-1v8.65c0,1.7.18,1.83,1.81,1.98v.7h-5.54Zm2.61-13.78c-.7,0-1.33-.62-1.33-1.32,0-.8.63-1.38,1.36-1.38s1.28.58,1.28,1.38c0,.7-.58,1.32-1.3,1.32Z"/>
    <path class="cls-4" d="m91.04,29.57c3.14,0,5.47,2.38,5.47,5.6,0,4.05-3.01,5.98-5.47,5.98-3.46,0-5.57-2.78-5.57-5.58,0-4.08,3.19-6,5.57-6Zm-.3.85c-1.53,0-2.91,1.47-2.91,4.38,0,3.18,1.4,5.48,3.46,5.48,1.56,0,2.86-1.12,2.86-4.55,0-2.93-1.2-5.3-3.41-5.3Z"/>
  </g>
  <polyline class="cls-10" points="5.64 42.33 100.53 42.33 3.61 42.33"/>
</svg>